<svg width="24" height="24" viewBox="0 0 24 24" fill="none" xmlns="http://www.w3.org/2000/svg">
<path fill-rule="evenodd" clip-rule="evenodd" d="M10.7118 1H13.2882C14.9487 0.999982 16.2879 0.999966 17.3623 1.10958C18.4714 1.22273 19.4332 1.46273 20.284 2.03289C20.9513 2.48003 21.5242 3.05461 21.9701 3.72381C22.5386 4.57712 22.7779 5.54171 22.8907 6.65397C23 7.73153 23 9.07452 23 10.7399V10.8722C23 12.5376 23 13.8806 22.8907 14.9581C22.7779 16.0704 22.5386 17.035 21.9701 17.8883C21.5242 18.5575 20.9513 19.1321 20.284 19.5792C19.5409 20.0772 18.7138 20.3231 17.7771 20.4529C17.0414 20.5549 16.1896 20.5909 15.2038 20.6041L14.1864 22.6448C13.2855 24.4517 10.7145 24.4517 9.81362 22.6448L8.79622 20.6041C7.81036 20.5909 6.95864 20.5549 6.22292 20.4529C5.28615 20.3231 4.45906 20.0772 3.71596 19.5792C3.04869 19.1321 2.47577 18.5575 2.02991 17.8883C1.46139 17.035 1.22209 16.0704 1.10927 14.9581C0.999966 13.8806 0.999982 12.5376 1 10.8722V10.7399C0.999982 9.07453 0.999966 7.73153 1.10927 6.65397C1.22209 5.54171 1.46139 4.57712 2.02991 3.72381C2.47577 3.05461 3.04869 2.48003 3.71596 2.03289C4.5668 1.46273 5.52862 1.22273 6.63768 1.10958C7.71212 0.999966 9.05125 0.999982 10.7118 1ZM6.88507 3.54851C5.96929 3.64194 5.45627 3.81509 5.07402 4.07124C4.67366 4.33953 4.3299 4.68428 4.06239 5.0858C3.80698 5.46916 3.63432 5.98365 3.54116 6.90208C3.44592 7.84099 3.44445 9.05901 3.44445 10.806C3.44445 12.5531 3.44592 13.7711 3.54116 14.71C3.63432 15.6284 3.80698 16.1429 4.06239 16.5263C4.3299 16.9278 4.67366 17.2726 5.07402 17.5409C5.40813 17.7647 5.84272 17.9254 6.55764 18.0245C7.29219 18.1263 8.23648 18.1531 9.56089 18.1589C10.0553 18.1611 10.48 18.4574 10.6706 18.8821L12 21.5485L13.3294 18.8821C13.52 18.4574 13.9447 18.1611 14.4391 18.1589C15.7635 18.1531 16.7078 18.1263 17.4424 18.0245C18.1573 17.9254 18.5919 17.7647 18.926 17.5409C19.3263 17.2726 19.6701 16.9278 19.9376 16.5263C20.193 16.1429 20.3657 15.6284 20.4588 14.71C20.5541 13.7711 20.5556 12.5531 20.5556 10.806C20.5556 9.05901 20.5541 7.84099 20.4588 6.90208C20.3657 5.98365 20.193 5.46916 19.9376 5.0858C19.6701 4.68428 19.3263 4.33953 18.926 4.07124C18.5437 3.81509 18.0307 3.64194 17.1149 3.54851C16.1787 3.45299 14.9642 3.45151 13.2222 3.45151H10.7778C9.03578 3.45151 7.82127 3.45299 6.88507 3.54851Z" fill="#4FCA45"/>
<path fill-rule="evenodd" clip-rule="evenodd" d="M7 8.5C7 7.67157 7.55964 7 8.25 7L15.75 7C16.4404 7 17 7.67157 17 8.5C17 9.32843 16.4404 10 15.75 10L8.25 10C7.55964 10 7 9.32843 7 8.5Z" fill="#4FCA45"/>
<path fill-rule="evenodd" clip-rule="evenodd" d="M7 13.5C7 12.6716 7.53726 12 8.2 12H11.8C12.4627 12 13 12.6716 13 13.5C13 14.3284 12.4627 15 11.8 15H8.2C7.53726 15 7 14.3284 7 13.5Z" fill="#4FCA45"/>
</svg>
