<svg width="24" height="24" fill="none" xmlns="http://www.w3.org/2000/svg"><path fill-rule="evenodd" clip-rule="evenodd" d="M2 4.93C2 4.415 2.454 4 3.014 4h2.62c.463 0 1.208.162 1.569.831.233.432.32.92.37 1.304.027.197.044.36.06.508.02.2.039.374.073.573.05.29.11.422.143.473.016.002.04.004.077.003h.008l8.028.018c2.258.004 3.723 2.183 2.713 4.034l-.737 1.351c-.687 1.26-2.09 2.055-3.627 2.055h-6.23c-.185 0-.314 0-.43.01a.758.758 0 0 0-.198.037.14.14 0 0 0-.058.039.714.714 0 0 0-.135.242c-.038.098-.03.202.108.334.156.15.426.267.714.267h9.63c.559 0 1.013.416 1.013.93 0 .512-.454.928-1.014.928h-9.63c-.831 0-1.636-.318-2.182-.844-.564-.544-.885-1.358-.553-2.229.252-.659.679-1.117 1.271-1.36-.32-.73-.592-1.532-.699-2.306-.103-.749-.06-1.606.365-2.327a1.958 1.958 0 0 1-.044-.052c-.343-.418-.468-.928-.535-1.311-.04-.234-.073-.53-.1-.785-.016-.138-.03-.264-.043-.362a3.543 3.543 0 0 0-.096-.503H3.014C2.454 5.858 2 5.442 2 4.93zm3.64.929h-.003zM8.25 9.55l7.708.017c.752.002 1.24.728.904 1.345l-.737 1.351c-.344.63-1.046 1.027-1.814 1.027h-5.59c-.376-.766-.691-1.598-.792-2.326-.105-.765.043-1.182.322-1.414zm-.423-1.867h.002z" fill="#4FCA45"/><path d="M10.362 20.26a1.394 1.394 0 1 1-2.788 0 1.394 1.394 0 0 1 2.788 0zM17.795 20.26a1.394 1.394 0 1 1-2.787 0 1.394 1.394 0 0 1 2.787 0z" fill="#4FCA45"/></svg>